<svg xmlns="http://www.w3.org/2000/svg" viewBox="0 0 512 512">
  <defs>
    <linearGradient id="g" x1="0" x2="1" y1="0" y2="1">
      <stop stop-color="#66e3ff"/>
      <stop offset="1" stop-color="#b28cff"/>
    </linearGradient>
  </defs>
  <rect width="512" height="512" rx="122" fill="#08111f"/>
  <circle cx="256" cy="256" r="182" fill="url(#g)" opacity=".18"/>
  <path d="M142 168h141c54 0 88 29 88 75 0 33-19 57-50 68l57 92h-72l-49-81h-50v81h-65V168Zm65 51v54h72c18 0 29-10 29-27s-11-27-29-27h-72Z" fill="#fff"/>
  <path d="M109 380c42 37 95 56 155 56 58 0 109-18 151-53" fill="none" stroke="#66e3ff" stroke-width="30" stroke-linecap="round"/>
</svg>
